<svg width="22" height="22" viewBox="0 0 22 22" fill="none" xmlns="http://www.w3.org/2000/svg">
<path d="M22 10.9605C22 10.2376 21.9266 9.49136 21.8044 8.79178H11.2169V12.9193H17.2809C17.0363 14.2485 16.2294 15.4145 15.0313 16.1607L18.6501 18.8424C20.7774 16.9535 22 14.2019 22 10.9605Z" fill="#4280EF"/>
<path d="M11.2171 21.4076C14.249 21.4076 16.792 20.4515 18.6503 18.8191L15.0315 16.1607C14.029 16.8137 12.7331 17.1868 11.2171 17.1868C8.28291 17.1868 5.81332 15.2979 4.90862 12.7794L1.19202 15.5078C3.09922 19.1223 6.96253 21.4076 11.2171 21.4076Z" fill="#34A353"/>
<path d="M4.90861 12.7561C4.44403 11.4269 4.44403 9.98106 4.90861 8.65186L1.192 5.90018C-0.397334 8.93169 -0.397334 12.4995 1.192 15.5077L4.90861 12.7561Z" fill="#F6B704"/>
<path d="M11.2171 4.24453C12.8064 4.22121 14.3713 4.80419 15.5205 5.85356L18.7236 2.77541C16.6942 0.9565 14.0045 -0.0229124 11.2171 0.00040699C6.96254 0.00040699 3.09922 2.2857 1.19202 5.9002L4.90862 8.65188C5.81332 6.11007 8.28291 4.24453 11.2171 4.24453Z" fill="#E54335"/>
</svg>
