<svg width="276" height="36" viewBox="0 0 276 36" fill="none" xmlns="http://www.w3.org/2000/svg">
<path fill-rule="evenodd" clip-rule="evenodd" d="M0 9.79538L26.2046 36H0V9.79538Z" fill="#BBD034"/>
<path fill-rule="evenodd" clip-rule="evenodd" d="M78.0674 31.6027C73.2535 31.6027 69.4833 27.639 69.4833 22.5778C69.4833 17.3473 73.0519 13.5512 77.9688 13.5512C82.8903 13.5512 86.6013 17.4315 86.6013 22.5778C86.6013 27.8075 83.0121 31.6027 78.0674 31.6027ZM78.0674 9.68697C70.6731 9.68697 64.8809 15.3493 64.8809 22.5778C64.8809 29.7786 70.6292 35.4185 77.9688 35.4185C85.3899 35.4185 91.2037 29.7786 91.2037 22.5778C91.2037 15.2284 85.5566 9.68697 78.0674 9.68697Z" fill="white"/>
<path fill-rule="evenodd" clip-rule="evenodd" d="M100.572 22.5778C100.572 17.4315 104.072 13.5512 108.713 13.5512C111.921 13.5512 113.918 14.9981 115.433 16.4917L118.213 13.4903C115.645 10.8616 112.716 9.68697 108.762 9.68697C101.589 9.68697 95.9701 15.3493 95.9701 22.5778C95.9701 29.7786 101.568 35.4185 108.713 35.4185C113.681 35.4185 116.409 33.3498 118.395 31.2488L115.742 28.6326C113.589 30.6844 111.5 31.6027 109.008 31.6027C104.199 31.6027 100.572 27.7233 100.572 22.5778Z" fill="white"/>
<path fill-rule="evenodd" clip-rule="evenodd" d="M151.53 10.2263H146.611L156.727 35.027H161.18L171.248 10.2263H166.474L158.976 30.5714L151.53 10.2263Z" fill="white"/>
<path fill-rule="evenodd" clip-rule="evenodd" d="M177.424 34.8299H182.026V10.2263H177.424V34.8299Z" fill="white"/>
<path fill-rule="evenodd" clip-rule="evenodd" d="M235.245 31.6027C230.431 31.6027 226.661 27.639 226.661 22.5778C226.661 17.3473 230.229 13.5512 235.145 13.5512C240.068 13.5512 243.779 17.4315 243.779 22.5778C243.779 27.8075 240.19 31.6027 235.245 31.6027ZM235.245 9.68697C227.851 9.68697 222.058 15.3493 222.058 22.5778C222.058 29.7786 227.807 35.4185 235.145 35.4185C242.568 35.4185 248.382 29.7786 248.382 22.5778C248.382 15.2284 242.734 9.68697 235.245 9.68697Z" fill="white"/>
<path fill-rule="evenodd" clip-rule="evenodd" d="M55.2439 23.4308C54.8372 28.2545 51.343 31.6027 46.7468 31.6027C41.9329 31.6027 38.1619 27.639 38.1619 22.5778C38.1619 17.3473 41.7304 13.5512 46.6474 13.5512C51.2203 13.5512 54.8345 16.9844 55.2421 21.7141L55.2439 23.4308ZM46.7468 9.68696C39.3526 9.68696 33.5603 15.3493 33.5603 22.5778C33.5603 29.7785 39.3087 35.4185 46.6474 35.4185C49.4024 35.4185 52.0141 34.6498 54.2002 33.1957L55.2439 32.5004V35.3334H60.0596V0H55.2439V12.5459L54.202 11.8596C52.0463 10.4378 49.4678 9.68696 46.7468 9.68696Z" fill="white"/>
<path fill-rule="evenodd" clip-rule="evenodd" d="M264.132 10.298C262.209 10.298 260.323 10.772 258.675 11.6661L257.682 12.2064V9.51852H253.079L253.074 21.0216L253.075 35.277H257.685V20.889C257.798 17.0131 260.416 14.3136 264.052 14.3136C265.851 14.3136 267.508 15.0161 268.718 16.291C269.923 17.5614 270.587 19.305 270.585 21.1999V35.277H275.166V21.1291C275.166 15.0564 270.319 10.298 264.132 10.298Z" fill="white"/>
<path fill-rule="evenodd" clip-rule="evenodd" d="M212.538 34.8299H217.139V10.2263H212.538V34.8299Z" fill="white"/>
<path fill-rule="evenodd" clip-rule="evenodd" d="M141.731 13.4903C139.164 10.8616 136.235 9.68697 132.281 9.68697C127.323 9.75327 123.72 12.8828 123.72 17.1278C123.72 19.1956 124.511 20.7842 126.139 21.9856C127.61 23.0115 129.477 23.6682 131.113 24.1771C131.191 24.2049 131.265 24.2255 131.337 24.247C131.443 24.2766 131.536 24.3034 131.617 24.3303L131.77 24.3805C134.809 25.375 137.432 26.2333 137.432 28.457C137.432 29.4166 136.905 31.652 132.019 31.6789C129.501 31.6789 127.164 30.6557 125.02 28.6371L122.367 31.2524C125.156 34.1741 128.091 35.4248 132.121 35.4248L132.968 35.4069C137.938 35.3388 141.543 32.2093 141.543 27.9652C141.543 25.9027 140.757 24.3178 139.138 23.119C137.652 22.0806 135.786 21.4239 134.152 20.9159C134.082 20.8908 134.017 20.8729 133.953 20.8549L133.862 20.8281L133.483 20.7089C130.45 19.7153 127.832 18.8579 127.832 16.6359C127.832 14.7768 129.577 13.5682 132.277 13.5557C135.452 13.5557 137.44 14.9999 138.951 16.4917L141.731 13.4903Z" fill="white"/>
<path fill-rule="evenodd" clip-rule="evenodd" d="M206.688 13.4903C204.12 10.8616 201.191 9.68697 197.237 9.68697C192.279 9.75327 188.676 12.8828 188.676 17.1278C188.676 19.1956 189.467 20.7842 191.095 21.9856C192.567 23.0115 194.434 23.6682 196.069 24.1771C196.148 24.2049 196.221 24.2255 196.294 24.247C196.399 24.2766 196.493 24.3034 196.573 24.3303L196.726 24.3805C199.766 25.375 202.388 26.2333 202.388 28.457C202.388 29.4166 201.861 31.652 196.976 31.6789C194.457 31.6789 192.12 30.6557 189.976 28.6371L187.323 31.2524C190.113 34.1741 193.048 35.4248 197.078 35.4248L197.924 35.4069C202.894 35.3388 206.499 32.2093 206.499 27.9652C206.499 25.9027 205.713 24.3178 204.095 23.119C202.608 22.0806 200.742 21.4239 199.108 20.9159C199.038 20.8908 198.974 20.8729 198.909 20.8549L198.819 20.8281L198.44 20.7089C195.406 19.7153 192.788 18.8579 192.788 16.6359C192.788 14.7768 194.533 13.5682 197.234 13.5557C200.408 13.5557 202.396 14.9999 203.908 16.4917L206.688 13.4903Z" fill="white"/>
<path fill-rule="evenodd" clip-rule="evenodd" d="M179.722 4.81572C180.987 4.81572 182.016 3.78718 182.016 2.5221C182.016 1.25792 180.987 0.22937 179.722 0.22937C178.458 0.22937 177.428 1.25792 177.428 2.5221C177.428 3.78718 178.458 4.81572 179.722 4.81572Z" fill="white"/>
<path fill-rule="evenodd" clip-rule="evenodd" d="M214.832 4.93122C216.097 4.93122 217.126 3.90267 217.126 2.63759C217.126 1.37341 216.097 0.344864 214.832 0.344864C213.568 0.344864 212.538 1.37341 212.538 2.63759C212.538 3.90267 213.568 4.93122 214.832 4.93122Z" fill="white"/>
</svg>
