<svg width="22" height="18" viewBox="0 0 22 18" fill="none" xmlns="http://www.w3.org/2000/svg">
<path d="M22 2.10325C21.1902 2.47132 20.3174 2.71319 19.413 2.82887C20.3384 2.27151 21.0535 1.38815 21.3901 0.326004C20.5172 0.851816 19.5497 1.21989 18.5296 1.43021C17.6989 0.525813 16.5316 0 15.2065 0C12.7352 0 10.7161 2.01912 10.7161 4.51147C10.7161 4.86902 10.7581 5.21606 10.8317 5.54207C7.08796 5.35277 3.7543 3.55449 1.53537 0.830784C1.14627 1.49331 0.92543 2.27151 0.92543 3.09178C0.92543 4.6587 1.71415 6.04685 2.93403 6.83556C2.18738 6.83556 1.49331 6.62524 0.883365 6.30975C0.883365 6.30975 0.883365 6.30975 0.883365 6.3413C0.883365 8.52868 2.43977 10.3585 4.50096 10.7686C4.12237 10.8738 3.72275 10.9264 3.31262 10.9264C3.02868 10.9264 2.74474 10.8948 2.47132 10.8423C3.0392 12.6195 4.69025 13.9446 6.67782 13.9761C5.14245 15.196 3.19694 15.9111 1.07266 15.9111C0.715105 15.9111 0.357553 15.8901 0 15.848C1.99809 17.131 4.37476 17.8776 6.91969 17.8776C15.2065 17.8776 19.76 11 19.76 5.03728C19.76 4.83748 19.76 4.64818 19.7495 4.44837C20.6329 3.8174 21.3901 3.01816 22 2.10325Z" fill="#0097EC"/>
</svg>
