<svg width="73" height="73" viewBox="0 0 73 73" fill="none" xmlns="http://www.w3.org/2000/svg">
<path d="M17.6061 4.05185L0.138667 8.01749L0.0108568 36.208C-0.0317467 51.6826 0.0534604 64.5278 0.223875 64.7003C0.436892 64.9158 8.36115 66.8124 17.9043 68.9245C32.3043 72.1574 35.9256 72.8471 38.9079 72.8471H42.5292V68.3211V63.7951H57.6535H72.7777V36.4235V9.052H57.6535H42.5292V4.526V1.96625e-06L38.8227 0.043105C35.7978 0.0862141 31.7505 0.862099 17.6061 4.05185ZM36.5647 36.4235C36.5647 60.476 36.4369 66.8124 36.0535 66.7693C35.7552 66.7693 28.8961 65.2606 20.8014 63.4502L6.10316 60.088L5.97535 36.5097L5.89015 12.9314L7.04044 12.6297C8.53157 12.2849 35.7978 6.12088 36.2665 6.07777C36.4369 6.03467 36.5647 19.6989 36.5647 36.4235ZM66.728 36.5097L66.8132 57.7604H54.6712H42.5292V54.7431V51.7257H45.5115H48.4937V48.7084V45.6911H45.5115H42.5292V44.1824V42.6737H45.5115H48.4937V39.6564V36.6391H45.5115H42.5292V34.9149V33.1907H45.5115H48.4937V30.3889V27.5871H45.5115H42.5292V25.8629V24.1387H45.5115H48.4937V21.1213V18.104H45.5115H42.5292V16.5953V15.0867L54.586 15.1729L66.6002 15.3022L66.728 36.5097Z" fill="black"/>
<path d="M23.8689 22.1127L19.5233 32.3717L15.7316 23.449L10.1505 24.5266C11.6735 28.5566 15.1777 36.4235 15.1777 36.4235L9.38367 48.4928L15.6464 49.398L18.8843 40.1736L23.6133 50.6481L30.8559 51.5964L22.9316 36.3804L30.515 21.3799L23.8689 22.1127Z" fill="black"/>
<path d="M51.476 21.1213V24.1387H57.4404H63.4049V21.1213V18.104H57.4404H51.476V21.1213Z" fill="black"/>
<path d="M51.476 30.4751V33.4062H57.4404H63.4049V30.4751V27.5871H57.4404H51.476V30.4751Z" fill="black"/>
<path d="M51.476 39.6564V42.6737H57.4404H63.4049V39.6564V36.639H57.4404H51.476V39.6564Z" fill="black"/>
<path d="M51.476 48.7084V51.7257H57.4404H63.4049V48.7084V45.6911H57.4404H51.476V48.7084Z" fill="black"/>
</svg>
